<svg width="1440" height="80" viewBox="0 0 1440 80" fill="none" xmlns="http://www.w3.org/2000/svg">
  <!-- Baltimore row house silhouette pattern -->
  <path d="
    M0,80 L0,50 L30,50 L30,35 L35,30 L40,35 L40,50 L70,50 L70,40 L75,35 L80,40 L80,50
    L110,50 L110,45 L115,40 L120,45 L120,50 L150,50 L150,35 L155,30 L160,35 L160,50
    L190,50 L190,42 L195,38 L200,42 L200,50 L230,50 L230,48 L235,44 L240,48 L240,50
    L270,50 L270,38 L275,33 L280,38 L280,50 L310,50 L310,45 L315,40 L320,45 L320,50
    L350,50 L350,35 L355,30 L360,35 L360,50 L390,50 L390,40 L395,35 L400,40 L400,50
    L430,50 L430,48 L435,44 L440,48 L440,50 L470,50 L470,42 L475,38 L480,42 L480,50
    L510,50 L510,35 L515,30 L520,35 L520,50 L550,50 L550,45 L555,40 L560,45 L560,50
    L590,50 L590,38 L595,33 L600,38 L600,50 L630,50 L630,40 L635,35 L640,40 L640,50
    L670,50 L670,48 L675,44 L680,48 L680,50 L710,50 L710,35 L715,30 L720,35 L720,50
    L750,50 L750,42 L755,38 L760,42 L760,50 L790,50 L790,45 L795,40 L800,45 L800,50
    L830,50 L830,38 L835,33 L840,38 L840,50 L870,50 L870,35 L875,30 L880,35 L880,50
    L910,50 L910,48 L915,44 L920,48 L920,50 L950,50 L950,40 L955,35 L960,40 L960,50
    L990,50 L990,42 L995,38 L1000,42 L1000,50 L1030,50 L1030,45 L1035,40 L1040,45 L1040,50
    L1070,50 L1070,35 L1075,30 L1080,35 L1080,50 L1110,50 L1110,38 L1115,33 L1120,38 L1120,50
    L1150,50 L1150,48 L1155,44 L1160,48 L1160,50 L1190,50 L1190,40 L1195,35 L1200,40 L1200,50
    L1230,50 L1230,35 L1235,30 L1240,35 L1240,50 L1270,50 L1270,42 L1275,38 L1280,42 L1280,50
    L1310,50 L1310,45 L1315,40 L1320,45 L1320,50 L1350,50 L1350,38 L1355,33 L1360,38 L1360,50
    L1390,50 L1390,48 L1395,44 L1400,48 L1400,50 L1440,50 L1440,80 Z
  " fill="#1A1A1A" opacity="0.1"/>
</svg>
